<?xml version="1.0" encoding="utf-8"?>
<!-- Generator: Adobe Illustrator 18.1.1, SVG Export Plug-In . SVG Version: 6.00 Build 0)  -->
<svg version="1.1" id="图层_1" xmlns="http://www.w3.org/2000/svg" xmlns:xlink="http://www.w3.org/1999/xlink" x="0px" y="0px"
	 viewBox="0 0 399.8 144" enable-background="new 0 0 399.8 144" xml:space="preserve">
<g>
	<path fill-rule="evenodd" clip-rule="evenodd" fill="#FFFFFF" d="M63.2,100.5c0,0-7.8,19-22.3,27.8c-0.6-10.1-14.9-10.5-19,0
		c0,0-6.8,0.3-10-1.2c-6-2.9,6.6-12.5,9.6-13.4c4.4-1.3,9.4-0.4,15.5-2C44.1,109.8,51.8,102,63.2,100.5L63.2,100.5z"/>
	<path fill-rule="evenodd" clip-rule="evenodd" fill="#FFFFFF" d="M91.9,93c-20.4-1.9-21.6,14.9-25.9,19.9l10,0.1
		c-18.7,3-21.4,24-48.4,20.6c0,0,15.8,4.9,32.7-5.4h18.1c1.9-10.1,15.6-14.1,20.8-3.6v3.6h7.9c0,0,6.2-8.3,3.5-11.6
		c-13.9,4.9-21.4-16.2-33.6-15.3C80.9,94.2,91.9,93,91.9,93L91.9,93z"/>
	<path fill="#FFFFFF" d="M198.7,87h7.5v6.1H123V87h7.5V30.1h68.1V87z M205.1,27.9h-15.8v-7.5h-49.1v7.5h-16.1V14.3h81V27.9z
		 M183.2,87V71.6h-37.6V87H183.2z M183.2,47.6V36.5h-37.6v11.1H183.2z M183.2,65.5V54.1h-37.6v11.5H183.2z M170.7,5.7v7.2h-14
		L170.7,5.7z M303.3,48.3v6.4h-43L241,92h-16.8l19-37.2h-22.9v-6.4h26.2l14.7-28.6h17.2l-14.7,28.6H303.3z M298.3,32.6h-15l2.5-16.1
		h-64.5V10h81L298.3,32.6z M268.2,58h17.2l18.3,34h-17.2L268.2,58z M244.6,19.7l6.1,11.4h-15.8l-6.1-11.4H244.6z M228.8,44.4
		l-6.1-11.1h15.8l6.1,11.1H228.8z M399.8,22.2h-50.9l-9,19h10.8v-8.6l17.9-4.3v12.9h30.5v7.5h-30.5v20.8h31.2V77h-31.2v51.3
		l-17.9-8.7V77h-34.4v-7.5h34.4V48.7h-32.6l12.5-26.5h-14.3v-7.8h17.9L336,10h18.7l-2.2,4.3h47.3V22.2z"/>
	<g>
		<g>
			<path fill="#FFFFFF" d="M123,105.9h4.8v22.7H123V105.9z"/>
			<path fill="#FFFFFF" d="M131.3,109.9v-4.1h19.6v4.1h-7.5v18.7h-4.8v-18.7H131.3z"/>
			<path fill="#FFFFFF" d="M158.2,109.8l-2.6,5.1h-2.1l2.1-4.7h-1.5v-4.4h4.1V109.8z"/>
			<path fill="#FFFFFF" d="M163.2,124.5h10.4c1.8,0,2.8-0.2,3.4-0.5c0.7-0.4,1.1-1.2,1.1-2.1c0-1.1-0.5-2-1.5-2.4
				c-0.5-0.3-1.4-0.4-2.5-0.4H170c-2.7,0-4.5-0.5-5.7-1.5c-1.4-1.2-2.1-3-2.1-5c0-2.9,1.6-5.5,4-6.3c1-0.4,2.2-0.5,4.9-0.5h11.2v4.1
				H172c-2.1,0-2.3,0-3,0.2c-1,0.2-1.5,1.1-1.5,2.3c0,1,0.5,1.8,1.3,2.2c0.7,0.3,1.2,0.4,2.9,0.4h3.6c3.3,0,5.1,0.5,6.5,1.9
				c1,1,1.7,3,1.7,5c0,2.5-1.1,4.7-2.9,5.8c-1.1,0.7-2.6,0.9-5.9,0.9h-11.4V124.5z"/>
			<path fill="#FFFFFF" d="M210.1,123.6l6-17.7h7.1v22.7h-4.6v-17.1l-6,17.1h-5l-5.6-17.1v17.1h-4.6v-22.7h7.1L210.1,123.6z"/>
			<path fill="#FFFFFF" d="M226.5,105.9h5.7l5.2,8.9l5.5-8.9h5.7l-8.9,12.9v9.8h-4.8v-9.9L226.5,105.9z"/>
			<path fill="#FFFFFF" d="M278.6,128.6h-7.9c-3.9,0-5.8-0.5-7.6-2.2c-1.9-1.9-3-5-3-9.1c0-5.1,1.8-8.9,5-10.4c1.3-0.6,3.5-1,5.8-1
				h7.7v4.1h-7.1c-2.3,0-3.9,0.6-4.8,1.8c-0.7,0.9-1.2,2.7-1.2,5.1c0,3.3,0.7,5.7,2.1,6.7c0.9,0.7,2.3,1,4.1,1h7V128.6z"/>
			<path fill="#FFFFFF" d="M290.7,105.9h5.6l9.4,22.7H300l-2.2-5.3h-8.7l-2.2,5.3h-5.7L290.7,105.9z M290.2,119.3h6.5l-3.2-7.9
				L290.2,119.3z"/>
			<path fill="#FFFFFF" d="M313.9,128.6h-4.8v-22.7h11.1c3.4,0,5.5,0.4,6.8,1.3c1.6,1.1,2.5,2.9,2.5,5c0,3.5-1.4,5.6-4.3,6.6
				c2.7,0.7,4,2.8,4.1,6.3c0.2,2.1,0.2,2.6,0.5,3.4h-5.4c-0.2-0.5-0.2-0.7-0.3-1.2c-0.1-0.6-0.2-1.6-0.2-2c-0.4-4.1-1.9-5.4-6.2-5.4
				h-3.9V128.6z M320.7,115.9c2.5,0,3.5-0.9,3.5-3.1c0-1.4-0.6-2.3-1.7-2.7c-0.4-0.1-1-0.2-1.8-0.2h-6.8v6H320.7z"/>
		</g>
	</g>
</g>
</svg>
